**ABCDEFGHIJKLMNOPQRSTUVWXYZabcdefghijklmnopqrstuvwxyz**************************
**PARASOLID !"#$%&'()*+,-./:;<=>?@[\]^_`{|}~0123456789**************************
**PART1;
MC=AMD64;
MC_MODEL=Intel64 Family 6 Model 15 Stepping 6, GenuineIntel;
MC_ID=unknown;
OS=Windows_NT;
OS_RELEASE=unknown;
FRU=Parasolid Version 25.1, build 217, 11-13-2013;
APPL=SolidWorks 2014-2014010;
SITE=;
USER=unknown;
FORMAT=text;
GUISE=transmit;
KEY=NX3224T024;
FILE=NX3224T024.x_t;
DATE=Sun Jan 10 11:01:11 2016;
**PART2;
SCH=SCH_2501217_25001;
USFLD_SIZE=0;
**PART3;
**END_OF_HEADER*****************************************************************
T51 : TRANSMIT FILE created by modeller version 250121723 SCH_2501217_25001_1300
6189 0 12 29 CCCCCCCCCCCCCDI5 owner1040 0 CCCCCCCCCA16 index_map_offset0 0 1 dA9
 index_map82 0 A17 node_id_index_map82 0 A20 schema_embedding_map82 0 A5 child12
 0 A14 lowest_node_id0 0 1 dZ1 1536 0 2 0 0 0 0 1e3 1e-8 0 3 0 1 0 1 1 4 5 6 7 8
 9 10 0 0 0 0 0 0 70 11 CI9 list_type0 0 1 uI10 notransmit0 0 1 lCCCDCCDI12 fing
er_index0 0 1 dI12 finger_block1012 0 CZ2 0 4 T1 0 0 2 20 1 11 11 13 255 4 94 0
 1 0 12 0 0 13 0 51 255 5 777 0 14 15 0 0 +-.03425 .0184 -.0016002 0 0 1 .003 1
 0 0 30 255 6 921 0 1 16 0 17 +-.03725 -.0075 -.0078502 0 0 1 29 255 7 1196 0 10
 18 0 -.02035 -.0214 -.0037402 19 8 CCCCCCCA5 owner12 0 Z8 28 0 1 13 0 19 V0 16
 255 9 680 0 ?20 0 21 22 0 0 1 18 255 10 1194 0 23 0 24 7 ?1 17 255 23 0 25 26 2
7 10 28 29 0 30 +18 24 1068 0 31 10 32 18 ?1 17 31 0 33 34 35 24 36 37 0 38 +18
 32 943 0 39 24 40 41 ?1 29 18 1070 0 24 41 7 -.00855 -.0214 -.0016002 29 41 945
 0 32 42 18 -.03725 .00615 -.0021402 29 42 819 0 40 43 41 -.02925 -.0075 -.00160
02 18 40 817 0 44 32 45 42 ?1 29 43 812 0 45 46 42 -.03725 -.0075 -.0016002 18 4
5 809 0 47 40 48 43 1e-8 1 29 46 806 0 48 49 43 -.03725 .0075 -.0016002 18 48 80
4 0 50 45 51 46 1e-8 1 29 49 664 0 51 52 46 -.03725 -.0184 0 18 51 662 0 53 48 5
4 49 ?1 29 52 661 0 54 55 49 -.03725 .0184 0 18 54 659 0 56 51 57 52 ?1 29 55 64
6 0 57 58 52 -.03425 -.0214 0 18 57 643 0 20 54 59 55 ?1 29 58 622 0 59 60 55 .0
3425 -.0214 -.0016002 18 59 620 0 61 57 62 58 ?1 29 60 619 0 62 63 58 -.03425 -.
0214 -.0016002 18 62 617 0 64 59 65 60 ?1 29 63 616 0 65 66 60 -.03725 -.0184 -.
0016002 18 65 614 0 67 62 68 63 ?1 29 66 613 0 68 69 63 -.03725 .0184 -.0016002
 18 68 611 0 70 65 71 66 ?1 29 69 598 0 71 72 66 -.03425 .0214 0 18 71 595 0 73
 68 74 69 ?1 29 72 594 0 74 75 69 -.03425 .0214 -.0016002 18 74 592 0 76 71 77 7
2 ?1 29 75 591 0 77 78 72 .03425 .0214 -.0016002 18 77 589 0 79 74 80 75 ?1 29 7
8 578 0 80 81 75 .03425 .0214 0 18 80 575 0 82 77 83 78 ?1 29 81 574 0 83 84 78
 .03425 -.0214 0 18 83 571 0 85 80 86 81 ?1 29 84 560 0 86 87 81 .03725 .0184 -.
0016002 18 86 558 0 88 83 89 84 ?1 29 87 557 0 89 90 84 .03725 -.0184 -.0016002
 18 89 555 0 91 86 92 87 ?1 29 90 554 0 92 93 87 .03725 .0184 0 18 92 552 0 94 8
9 95 90 ?1 29 93 551 0 95 96 90 .03725 -.0184 0 18 95 549 0 97 92 98 93 ?1 29 96
 300 0 98 99 93 -.02711 -.01825 .0042 18 98 298 0 100 95 101 96 ?1 29 99 296 0 1
01 102 96 .02189 -.01825 .0042 18 101 294 0 103 98 104 99 ?1 29 102 292 0 104 10
5 99 .02189 .01825 .0042 18 104 290 0 106 101 107 102 ?1 29 105 289 0 107 108 10
2 -.02711 .01825 .0042 18 107 287 0 109 104 110 105 ?1 29 108 153 0 110 111 105
 -.03019 .0214 0 18 110 150 0 112 107 113 108 1e-8 1 29 111 144 0 113 114 108 .0
3011 -.0214 0 18 113 141 0 115 110 116 111 1e-8 1 29 114 138 0 116 117 111 -.030
19 -.0214 0 18 116 136 0 118 113 119 114 1e-8 1 29 117 244 0 120 121 114 .03011
 .0214 0 18 120 195 0 122 123 124 117 1e-8 1 29 121 247 0 119 125 117 -.03019 .0
214 .0042 18 119 199 0 126 116 127 121 ?1 29 125 248 0 127 128 121 .03011 .0214
 .0042 18 127 198 0 129 119 130 125 ?1 29 128 249 0 130 131 125 .03011 -.0214 .0
042 18 130 197 0 132 127 123 128 ?1 29 131 250 0 123 133 128 -.03019 -.0214 .004
2 18 123 194 0 134 130 120 131 ?1 29 133 906 0 135 136 131 -.02925 .0075 -.00160
02 18 135 854 0 137 138 139 133 ?1 29 136 908 0 124 140 133 -.03725 -.0075 -.007
8502 18 124 860 0 141 120 142 136 ?1 29 140 909 0 142 143 136 -.02925 -.0075 -.0
078502 18 142 859 0 144 124 145 140 ?1 29 143 910 0 145 146 140 -.02925 .0075 -.
0078502 18 145 858 0 147 142 138 143 ?1 29 146 911 0 138 148 143 -.03725 .0075 -
.0078502 18 138 855 0 149 145 135 146 ?1 29 148 1040 0 150 151 146 -.03725 .0061
5 -.0078402 18 150 993 0 152 153 154 148 ?1 29 151 1042 0 154 155 148 -.03725 -.
00615 -.0021402 18 154 990 0 156 150 157 151 ?1 29 155 1043 0 157 158 151 -.0372
5 -.00615 -.0078402 18 157 997 0 159 154 160 155 ?1 29 158 1044 0 139 161 155 -.
04075 .00615 -.0078402 18 139 996 0 162 135 163 158 ?1 29 161 1045 0 163 164 158
 -.04075 .00615 -.0021402 18 163 995 0 165 139 166 161 ?1 29 164 1046 0 166 167
 161 -.04075 -.00615 -.0021402 18 166 994 0 168 163 153 164 ?1 29 167 1047 0 153
 169 164 -.04075 -.00615 -.0078402 18 153 991 0 170 166 150 167 ?1 29 169 1164 0
 171 172 167 -.00855 -.00665 -.0016002 18 171 1117 0 173 174 175 169 ?1 29 172 1
165 0 175 176 169 -.02345 -.00665 -.0016002 18 175 1116 0 177 171 178 172 ?1 29
 176 1166 0 178 179 172 -.02345 -.0214 -.0016002 18 178 1114 0 180 175 181 176 ?
1 29 179 1168 0 160 182 176 -.00855 -.00665 -.0037502 18 160 1120 0 183 157 184
 179 ?1 29 182 1169 0 184 185 179 -.02345 -.00665 -.0037502 18 184 1119 0 186 16
0 187 182 ?1 29 185 1170 0 187 188 182 -.02345 -.0214 -.0037502 18 187 1118 0 18
9 184 174 185 ?1 29 188 1171 0 174 190 185 -.00855 -.0214 -.0037502 18 174 1115
 0 191 187 171 188 ?1 29 190 1292 0 192 193 188 -.00932 -.0214 -.0037402 18 192
 1245 0 26 194 195 190 ?1 29 193 1294 0 195 196 190 -.02035 -.0214 -.0026402 18
 195 1242 0 197 192 198 193 ?1 29 196 1295 0 198 199 193 -.00932 -.0214 -.002640
2 18 198 1249 0 200 195 0 196 ?1 29 199 1296 0 181 201 196 -.00932 -.0239 -.0037
402 18 181 1248 0 202 178 203 199 ?1 29 201 1297 0 203 204 199 -.02035 -.0239 -.
0037402 18 203 1247 0 205 181 206 201 ?1 29 204 1298 0 206 207 201 -.02035 -.023
9 -.0026402 18 206 1246 0 208 203 194 204 ?1 29 207 1299 0 194 0 204 -.00932 -.0
239 -.0026402 18 194 1243 0 209 206 192 207 ?1 17 209 0 210 200 211 194 208 212
 0 213 -15 255 210 1257 0 197 214 0 17 200 0 210 197 209 198 215 216 0 217 +17 2
11 0 210 209 197 206 218 219 0 220 -17 208 0 221 205 213 206 209 212 0 211 +16 2
12 1233 0 ?208 222 223 224 0 0 1 17 213 0 221 208 202 194 225 223 0 215 +15 221
 1268 0 213 226 0 17 202 0 221 213 205 181 27 227 0 228 +17 225 0 229 230 215 18
1 213 223 0 0 -16 223 1230 0 ?213 212 231 232 0 0 1 17 215 0 229 225 217 194 200
 216 0 0 -15 229 1253 0 217 233 0 17 217 0 229 215 230 198 234 235 0 236 +16 216
 1221 0 ?200 37 219 237 0 0 1 16 37 1086 0 ?31 238 216 239 0 0 1 16 219 1225 0 ?
218 216 29 240 0 0 1 30 237 1280 0 216 240 241 0 +-.00932 -.0239 -.0026402 -9313
95154886876e-31 1 0 30 240 1281 0 219 242 237 0 +-.02035 -.0239 -.0026402 -93139
5154886876e-31 1 0 30 241 1163 0 243 237 244 0 +-.00855 -.0214 -.0037502 1176083
71252665e-30 -1 0 16 243 1102 0 ?245 246 247 241 0 0 1 30 244 1162 0 246 241 248
 0 +-.02345 -.0214 -.0037502 -1 232848788721719e-30 0 16 246 1105 0 ?189 249 243
 244 0 0 1 30 248 1161 0 249 244 250 0 +-.02345 -.0214 -.0037502 0 1 0 16 249 11
08 0 ?186 251 246 248 0 0 1 30 250 1160 0 251 248 239 0 +-.02345 -.00665 -.00375
02 1 -582121971804298e-31 0 16 251 1111 0 ?183 252 249 250 0 0 1 30 239 1159 0 3
7 250 253 0 +-.00855 -.0214 -.0016002 117608371252665e-30 -1 0 30 253 1157 0 238
 239 254 0 +-.02345 -.0214 -.0016002 0 1 0 16 238 1094 0 ?177 247 37 253 0 0 1 3
0 254 1156 0 247 253 255 0 +-.02345 -.00665 -.0016002 1 -582121971804298e-31 0 1
6 247 1098 0 ?173 243 238 254 0 0 1 30 255 1155 0 252 254 256 0 +-.00855 -.00665
 -.0037502 0 0 1 16 252 1089 0 ?35 257 251 255 0 0 1 30 256 1154 0 257 255 258 0
 +-.02345 -.00665 -.0037502 0 0 1 16 257 1101 0 ?259 260 252 256 0 0 1 30 258 11
53 0 260 256 261 0 +-.02345 -.0214 -.0037502 0 0 1 16 260 1097 0 ?180 262 257 25
8 0 0 1 30 261 1152 0 262 258 263 0 +-.00855 -.0214 -.0037502 0 0 1 16 262 1093
 0 ?38 264 260 261 0 0 1 30 263 1039 0 265 261 266 0 +-.04075 -.00615 -.0078402
 0 -1 0 16 265 978 0 ?267 268 269 263 0 0 1 30 266 1038 0 268 263 270 0 +-.04075
 -.00615 -.0021402 0 152168725962878e-30 1 16 268 981 0 ?168 271 265 266 0 0 1 3
0 270 1037 0 271 266 272 0 +-.04075 -.00615 -.0021402 0 1 0 16 271 984 0 ?165 27
3 268 270 0 0 1 30 272 1036 0 273 270 274 0 +-.04075 .00615 -.0021402 0 -1521687
25962878e-30 -1 16 273 987 0 ?162 275 271 272 0 0 1 30 274 1035 0 264 272 276 0
 +-.03725 -.00615 -.0078402 0 -1 0 16 264 962 0 ?277 278 262 274 0 0 1 30 276 10
34 0 278 274 279 0 +-.03725 -.00615 -.0021402 0 152168725962878e-30 1 16 278 966
 0 ?156 280 264 276 0 0 1 30 279 1033 0 280 276 281 0 +-.03725 -.00615 -.0021402
 0 1 0 16 280 970 0 ?282 269 278 279 0 0 1 30 281 1032 0 269 279 283 0 +-.03725
 .00615 -.0021402 0 -152168725962878e-30 -1 16 269 974 0 ?152 265 280 281 0 0 1
 30 283 1031 0 275 281 284 0 +-.04075 .00615 -.0078402 1 0 0 16 275 965 0 ?285 2
86 273 283 0 0 1 30 284 1030 0 286 283 287 0 +-.04075 .00615 -.0021402 1 0 0 16
 286 977 0 ?39 288 275 284 0 0 1 30 287 1029 0 288 284 289 0 +-.04075 -.00615 -.
0021402 1 0 0 16 288 973 0 ?290 291 286 287 0 0 1 30 289 1028 0 291 287 292 0 +-
.04075 -.00615 -.0078402 1 0 0 16 291 969 0 ?159 293 288 289 0 0 1 30 292 903 0
 294 289 295 0 +-.03725 -.0075 -.0078502 0 1 0 16 294 842 0 ?296 297 298 292 0 0
 1 30 295 902 0 297 292 299 0 +-.02925 .0075 -.0078502 1 0 0 16 297 845 0 ?147 3
00 294 295 0 0 1 30 299 901 0 300 295 301 0 +-.02925 -.0075 -.0078502 0 -1 0 16
 300 848 0 ?144 302 297 299 0 0 1 30 301 900 0 302 299 303 0 +-.02925 -.0075 -.0
078502 -1 0 0 16 302 851 0 ?141 304 300 301 0 0 1 30 303 897 0 305 301 306 0 +-.
02925 -.0075 -.0016002 0 -1 0 16 305 834 0 ?307 298 293 303 0 0 1 30 306 896 0 1
 303 308 309 +-.02925 -.0075 -.0016002 -1 0 0 30 308 894 0 310 306 311 0 +-.0292
5 -.0075 -.0078502 0 0 1 141 255 309 312 309 309 306 133 255 312 919 0 298 313 1
6 0 +306 -.02925 -.0075 -.0016002 -.03725 -.0075 -.0016002 0 .008 16 298 838 0 ?
314 294 305 312 0 0 1 30 313 916 0 1 315 312 316 +-.03725 .0075 -.0078502 0 0 1
 133 16 920 0 304 312 6 0 +6 -.03725 -.0075 -.0078502 -.03725 -.0075 -.0016002 0
 .00625 16 304 829 0 ?317 310 302 16 0 0 1 17 317 0 318 67 319 45 320 304 0 0 +1
6 310 841 0 ?321 322 304 308 0 0 1 17 321 0 323 314 324 40 325 310 0 0 +16 322 8
37 0 ?326 327 310 311 0 0 1 17 326 0 328 307 329 135 330 322 0 0 +16 327 833 0 ?
331 332 322 315 0 0 1 30 311 893 0 322 308 333 0 +-.02925 .0075 -.0078502 0 0 1
 31 255 333 528 0 332 311 334 0 +-.03416 .018245 -979717439317897e-34 0 0 1 1 0
 0 .0016 16 332 507 0 ?335 336 327 333 0 0 1 31 334 527 0 336 333 337 0 +-.03416
 .018245 -.0016002 0 0 1 1 0 0 .0016 16 336 508 0 ?338 339 332 334 0 0 1 31 337
 484 0 339 334 340 0 +.03416 -.018245 -979717439317897e-34 0 0 1 1 0 0 .0016 16
 339 463 0 ?341 342 336 337 0 0 1 31 340 483 0 342 337 343 0 +.03416 -.018245 -.
0016002 0 0 1 1 0 0 .0016 16 342 464 0 ?344 345 339 340 0 0 1 31 343 442 0 345 3
40 346 0 +.03416 .018245 -979717439317897e-34 0 0 1 1 0 0 .0016 16 345 421 0 ?34
7 348 342 343 0 0 1 31 346 441 0 348 343 349 0 +.03416 .018245 -.0016002 0 0 1 1
 0 0 .0016 16 348 422 0 ?350 351 345 346 0 0 1 31 349 400 0 351 346 352 0 +-.034
16 -.018245 -979717439317897e-34 0 0 1 1 0 0 .0016 16 351 379 0 ?353 354 348 349
 0 0 1 31 352 399 0 354 349 355 0 +-.03416 -.018245 -.0016002 0 0 1 1 0 0 .0016
 16 354 380 0 ?356 357 351 352 0 0 1 30 355 242 0 358 352 359 0 +-.03019 -.0214
 .0042 0 -1 0 16 358 181 0 ?360 361 362 355 0 0 1 30 359 241 0 361 355 363 0 +.0
3011 -.0214 .0042 1 0 0 16 361 184 0 ?132 364 358 359 0 0 1 30 363 240 0 364 359
 365 0 +.03011 -.0214 .0042 0 1 0 16 364 187 0 ?129 366 361 363 0 0 1 30 365 239
 0 366 363 367 0 +.03011 .0214 .0042 -1 0 0 16 366 190 0 ?126 368 364 365 0 0 1
 30 367 238 0 1 365 369 370 +-.03019 -.0214 0 0 -1 0 30 369 236 0 1 367 371 372
 +.03011 -.0214 0 0 1 0 141 370 373 370 370 367 133 373 263 0 357 374 375 0 +367
 -.03019 .0214 0 -.03019 -.0214 0 -.0428 693889390390723e-32 16 357 165 0 ?376 3
62 354 373 0 0 1 30 374 262 0 1 377 373 378 +-.03019 -.0214 .0042 0 0 -1 133 375
 264 0 368 373 379 0 +379 -.03019 .0214 .0042 -.03019 .0214 0 0 .0042 16 368 168
 0 ?380 381 366 375 0 0 1 30 379 265 0 1 375 382 383 +-.03019 .0214 .0042 0 0 -1
 30 382 293 0 384 379 385 0 +-2584383954006265e-33 .01825 .0042 1 14161007967157
6e-30 0 141 383 375 383 383 379 16 384 291 0 ?386 387 388 382 0 0 1 30 385 297 0
 387 382 389 0 +.02189 -2080717637760675e-33 .0042 -950533411494141e-31 -1 0 16
 387 295 0 ?390 391 384 385 0 0 1 30 389 301 0 391 385 392 0 +2584383954006265e-
33 -.01825 .0042 -1 -141610079671576e-30 0 16 391 299 0 ?393 394 387 389 0 0 1 3
0 392 304 0 394 389 395 0 +-.02711 0 .0042 0 1 0 16 394 302 0 ?109 396 391 392 0
 0 1 30 395 563 0 396 392 397 0 -.03725 -.0184 -.0016002 0 0 1 16 396 561 0 ?91
 398 394 395 0 0 1 30 397 568 0 398 395 399 0 +.03725 .0184 -.0016002 0 0 1 16 3
98 566 0 ?400 401 396 397 0 0 1 133 399 577 0 402 397 403 0 +404 .03425 .0214 0
 .03011 .0214 0 .003 .00714 16 402 576 0 ?122 405 406 399 0 0 1 31 403 581 0 401
 399 407 0 +.03425 -.0184 0 0 0 1 1 0 0 .003 30 404 66 0 1 408 409 410 +.03725 .
0214 0 -1 -931395154886876e-31 0 30 408 67 0 411 412 404 0 +.03725 -.0214 0 0 1
 0 133 409 143 0 413 404 414 0 +412 .03011 -.0214 0 .03425 -.0214 0 -.00714 -.00
3 141 410 414 415 415 404 133 414 152 0 406 409 416 0 +404 -.03019 .0214 0 -.034
25 .0214 0 .06744 .0715 141 415 399 410 410 404 16 406 151 0 ?417 402 411 414 0
 0 1 133 416 252 0 362 414 418 0 +369 .03011 -.0214 0 .03011 .0214 0 0 .0428 16
 362 173 0 ?419 358 357 416 0 0 1 133 418 253 0 381 416 420 0 +420 .03011 .0214
 .0042 .03011 .0214 0 0 .0042 16 381 180 0 ?421 422 368 418 0 0 1 30 420 254 0 1
 418 423 424 +.03011 .0214 .0042 0 0 -1 133 423 259 0 422 420 425 0 +425 .03011
 -.0214 .0042 .03011 -.0214 0 0 .0042 141 424 418 424 424 420 16 422 176 0 ?426
 427 381 423 0 0 1 30 425 260 0 1 423 377 428 +.03011 -.0214 .0042 0 0 -1 133 37
7 261 0 427 425 374 0 +374 -.03019 -.0214 .0042 -.03019 -.0214 0 0 .0042 141 428
 423 428 428 425 16 427 172 0 ?429 430 422 377 0 0 1 17 429 0 431 432 134 116 43
3 427 0 376 +16 430 660 0 ?434 413 427 435 0 0 1 17 434 0 436 20 56 51 437 430 0
 0 +16 413 142 0 ?438 439 430 409 0 0 1 30 435 69 0 430 440 412 0 +-.03725 -.021
4 0 0 -1 0 30 440 14 0 388 441 435 0 +.03725 .0214 -.0016002 -1 -931395154886876
e-31 0 30 412 68 0 1 435 408 442 +.03725 -.0214 0 1 931395154886876e-31 0 141 44
2 409 443 443 412 141 443 444 442 442 412 133 444 645 0 439 445 446 0 +412 -.034
25 -.0214 0 -.03019 -.0214 0 -.0715 -.06744 16 439 644 0 ?118 411 413 444 0 0 1
 31 445 640 0 447 448 444 0 -.03425 .0184 -.0016002 0 0 1 1 0 0 .003 30 446 649
 0 449 444 450 0 --.03425 -.0214 -.0016002 0 0 1 16 449 647 0 ?64 451 447 446 0
 0 1 30 450 655 0 451 446 452 0 +.03425 -.0214 -.0016002 0 0 1 16 451 653 0 ?453
 454 449 450 0 0 1 30 452 667 0 454 450 455 0 --.03725 .0184 -.0016002 0 0 1 16
 454 665 0 ?70 456 451 452 0 0 1 30 455 672 0 456 452 457 0 +-.03725 -.0184 -.00
16002 0 0 1 16 456 670 0 ?458 21 454 455 0 0 1 31 457 677 0 21 455 22 0 +-.03425
 .0184 0 0 0 1 1 0 0 .003 16 21 675 0 ?56 9 456 457 0 0 1 31 22 682 0 9 457 459
 0 +-.03425 -.0184 0 0 0 1 1 0 0 .003 133 459 808 0 460 22 461 0 +371 -.03725 .0
184 -.0016002 -.03725 .0075 -.0016002 -.0398 -.0289 16 460 612 0 ?462 463 405 45
9 0 0 1 133 461 811 0 405 459 464 0 +371 -.03725 -.0075 -.0016002 -.03725 -.0184
 -.0016002 -.0139 -.003 30 371 5 0 1 369 465 466 +-.03725 -.0214 -.0016002 0 -1
 0 30 465 8 0 467 371 441 0 +.03725 -.0214 -.0016002 1 931395154886876e-31 0 141
 466 461 468 468 371 141 468 459 466 466 371 16 467 618 0 ?469 470 463 465 463 4
63 1 30 441 11 0 470 465 440 0 +.03725 -.0214 -.0016002 0 1 0 16 470 556 0 ?471
 388 467 441 0 0 1 17 471 0 472 400 91 86 473 470 0 474 +16 388 590 0 ?475 384 4
70 440 0 0 1 17 475 0 476 477 79 74 478 388 0 479 +15 476 78 0 480 481 0 17 477
 0 476 482 475 71 479 483 0 417 +17 79 0 476 475 480 77 484 485 0 478 +17 478 0
 486 88 76 77 475 388 0 487 -17 479 0 488 489 73 74 477 483 0 0 -15 488 766 0 48
9 14 0 17 489 0 488 490 479 68 76 491 0 0 -17 73 0 488 479 490 71 56 21 0 477 -1
6 483 599 0 ?477 485 492 493 0 0 1 16 485 605 0 ?79 491 483 494 0 0 1 16 492 584
 0 ?82 483 401 407 0 0 1 30 493 601 0 483 407 494 0 +-.03425 .0214 -.0016002 0 0
 1 31 407 586 0 492 403 493 0 +.03425 .0184 0 0 0 1 1 0 0 .003 30 494 607 0 485
 493 495 0 -.03425 .0214 -.0016002 0 0 1 31 495 625 0 491 494 496 0 --.03425 .01
84 -.0016002 0 0 1 1 0 0 .003 16 491 623 0 ?76 497 485 495 0 0 1 31 496 630 0 49
7 495 448 0 --.03425 -.0184 -.0016002 0 0 1 1 0 0 .003 16 497 628 0 ?498 499 491
 496 0 0 1 31 448 635 0 499 496 445 0 -.03425 -.0184 -.0016002 0 0 1 1 0 0 .003
 16 499 633 0 ?500 447 497 448 0 0 1 17 500 0 486 501 473 59 502 499 0 503 +16 4
47 638 0 ?88 449 499 445 0 0 1 17 88 0 486 473 478 86 487 447 0 471 +15 486 1081
 0 36 504 0 17 473 0 486 500 88 89 471 470 0 502 -17 487 0 505 484 474 77 88 447
 0 0 -15 505 703 0 487 506 0 17 484 0 505 94 487 80 79 485 0 0 -17 474 0 505 487
 94 86 400 398 0 0 -17 94 0 505 474 484 92 82 492 0 400 -17 400 0 472 507 471 92
 474 398 0 508 +15 472 80 0 471 509 0 17 507 0 472 91 400 95 508 411 0 510 -17 5
08 0 511 82 97 92 507 411 0 0 +15 511 155 0 508 512 0 17 82 0 511 122 508 80 94
 492 0 480 +17 97 0 511 508 438 95 85 401 0 507 +16 411 550 0 ?508 406 439 408 0
 0 1 17 438 0 511 97 115 83 513 413 0 0 +17 85 0 514 503 510 83 97 401 0 453 -16
 401 579 0 ?97 492 398 403 0 0 1 15 514 724 0 502 515 0 17 503 0 514 502 85 59 4
53 451 0 0 -17 510 0 514 85 502 95 91 396 0 0 -17 453 0 431 513 61 83 503 451 0
 438 +15 431 82 0 469 12 516 17 513 0 431 517 453 113 438 413 0 426 -17 61 0 431
 453 38 59 501 463 0 500 +17 38 0 431 61 191 24 34 262 0 501 +17 501 0 486 36 50
0 24 61 463 0 0 -16 463 1069 0 ?61 467 460 465 467 467 1 17 36 0 486 518 501 171
 31 37 0 0 -17 518 0 486 519 36 175 173 247 0 0 -17 519 0 486 520 518 178 177 23
8 0 469 -17 173 0 521 522 259 171 518 247 0 35 +15 521 1137 0 173 523 0 17 522 0
 521 524 173 160 35 252 0 525 -17 259 0 521 173 524 175 526 257 0 518 +17 35 0 3
3 31 525 171 522 252 0 36 +15 33 1125 0 31 527 0 17 525 0 33 35 34 160 245 243 0
 0 -17 34 0 33 525 31 174 38 262 0 0 -17 245 0 528 189 183 174 525 243 0 34 +15
 528 1140 0 245 529 0 17 189 0 528 186 245 187 191 246 0 530 +17 183 0 528 245 1
86 160 524 251 0 522 +17 186 0 528 183 189 184 531 249 0 526 +17 524 0 521 259 5
22 184 183 251 0 0 -17 531 0 532 180 526 187 186 249 0 0 -17 526 0 532 531 177 1
84 259 257 0 524 -15 532 1133 0 177 533 0 17 177 0 532 526 180 175 519 238 0 259
 +17 180 0 532 177 531 178 530 260 0 519 +17 530 0 431 191 469 187 180 260 0 531
 -17 191 0 431 38 530 174 189 246 0 245 -17 469 0 431 530 64 178 520 467 0 0 +17
 64 0 431 469 432 62 534 449 0 520 +17 520 0 486 498 519 62 469 467 0 535 -17 49
8 0 486 47 520 65 535 497 0 536 +17 535 0 537 534 536 62 498 497 0 0 -15 537 745
 0 535 538 0 17 534 0 537 53 535 57 64 449 0 0 -17 536 0 537 535 53 65 458 456 0
 0 -17 53 0 537 536 534 51 20 9 0 458 -17 458 0 318 437 67 51 536 456 0 434 +15
 318 84 0 462 539 540 17 437 0 318 70 458 54 434 430 0 490 -17 67 0 318 458 317
 65 47 405 0 498 +17 47 0 486 44 498 45 67 405 0 314 -16 405 810 0 ?67 460 402 4
61 0 0 1 17 44 0 486 137 47 40 314 298 0 307 -17 314 0 323 320 321 45 44 298 0 3
17 +15 323 877 0 314 541 0 17 320 0 323 324 314 124 317 304 0 319 -17 324 0 323
 321 320 142 141 302 0 0 -17 319 0 318 317 542 124 296 294 0 0 -17 542 0 318 319
 462 138 331 327 0 0 -17 296 0 543 147 141 138 319 294 0 542 +15 543 880 0 296 5
44 0 17 147 0 543 144 296 145 149 297 0 330 +17 141 0 543 296 144 124 324 302 0
 320 +17 144 0 543 141 147 142 329 300 0 325 +17 329 0 328 326 325 145 144 300 0
 0 -17 325 0 328 329 307 142 321 310 0 324 -15 328 873 0 307 545 0 17 307 0 328
 325 326 40 137 305 0 321 +17 137 0 486 50 44 135 307 305 0 546 -17 50 0 486 547
 137 48 546 293 0 462 -17 546 0 548 330 331 135 50 293 0 326 +15 548 869 0 546 5
49 0 17 330 0 548 149 546 145 326 322 0 329 -17 331 0 548 546 149 48 542 327 0 0
 +16 293 830 0 ?546 305 291 464 0 0 1 133 464 913 0 293 461 550 0 +550 -.03725 .
0075 -.0016002 -.02925 .0075 -.0016002 -.008 0 30 550 914 0 1 464 315 551 +-.029
25 .0075 -.0016002 1 0 0 133 315 915 0 327 550 313 0 +313 -.03725 .0075 -.007850
2 -.03725 .0075 -.0016002 0 .00625 141 551 464 551 551 550 17 149 0 548 331 330
 138 147 297 0 296 -14 255 549 866 552 ?545 14 548 4 553 -0 0 545 14 19 81 255 1
 552 1500 554 549 555 0 0 556 557 14 545 870 556 ?541 549 328 4 558 -0 0 541 549
 19 14 14 765 559 ?549 538 488 4 5 +0 0 549 538 19 50 255 553 887 0 549 558 560
 0 +-.02925 .0075 -.0078502 0 -1 0 0 0 -1 13 19 29 0 0 0 0 0 0 8 12 14 12 1209 5
61 ?504 0 431 4 562 +0 0 504 0 19 81 1 561 1503 554 12 563 0 559 564 565 14 504
 1083 564 ?539 12 566 4 567 -0 0 539 12 19 50 562 92 0 12 568 569 0 +.03725 -.02
14 -.0016002 931395154886876e-31 -1 0 1 931395154886876e-31 0 50 568 91 0 509 57
0 562 0 +.03725 -.0214 -.0016002 1 0 0 0 0 -1 50 569 93 0 539 562 571 0 +-.03725
 -.0214 -.0016002 -1 0 0 0 0 1 14 539 958 572 ?573 504 318 4 569 +0 0 573 504 19
 51 571 714 0 506 569 574 0 +.03425 .0184 -.0016002 0 0 1 .003 1 0 0 14 506 702
 575 ?515 576 505 4 571 +0 0 515 576 19 51 574 735 0 515 571 15 0 +.03425 -.0184
 -.0016002 0 0 1 .003 1 0 0 14 515 723 577 ?538 506 514 4 574 +0 0 538 506 19 51
 15 756 0 538 574 5 0 +-.03425 -.0184 -.0016002 0 0 1 .003 1 0 0 14 538 744 578
 ?14 515 537 4 15 +0 0 14 515 19 81 1 578 1508 554 538 579 0 577 580 581 80 255
 1 554 582 583 9000 1 1 1 1 1 1 1 1 0 FFFFTFTFFFFFFF1 81 1 579 1395 584 538 0 57
8 585 586 587 81 1 577 1507 554 515 585 0 575 578 588 81 1 580 1509 554 541 589
 0 578 590 591 82 255 1 581 1881407666 14 541 874 580 ?544 545 323 4 592 -0 0 54
4 545 19 81 1 589 1399 584 541 0 580 593 594 595 81 1 590 1510 554 544 594 0 580
 596 597 82 1 591 -176684874 14 544 878 590 ?598 541 543 4 599 -0 0 598 541 19 8
1 1 594 1400 584 544 0 590 589 600 601 81 1 596 1511 554 598 600 0 590 602 603 8
2 1 597 -183238474 14 598 998 596 ?604 544 605 4 606 -0 0 604 544 19 81 1 600 14
01 584 598 0 596 594 607 608 81 1 602 1512 554 604 607 0 596 609 610 82 1 603 13
89494458 14 604 1002 602 ?611 598 612 4 613 -0 0 611 598 19 81 1 607 1402 584 60
4 0 602 600 614 615 81 1 609 1513 554 611 614 0 602 616 617 82 1 610 1389232314
 14 611 1006 609 ?618 604 619 4 620 -0 0 618 604 19 81 1 614 1403 584 611 0 609
 607 621 622 81 1 616 1514 554 618 621 0 609 623 624 82 1 617 1388970170 14 618
 1010 616 ?625 611 626 4 627 -0 0 625 611 19 81 1 621 1404 584 618 0 616 614 628
 629 81 1 623 1515 554 625 628 0 616 630 631 82 1 624 1388708026 14 625 1014 623
 ?527 618 632 4 633 +0 0 527 618 19 81 1 628 1405 584 625 0 623 621 634 635 81 1
 630 1516 554 527 634 0 623 636 637 82 1 631 1382154426 14 527 1122 630 ?533 625
 33 4 638 -0 0 533 625 19 81 1 634 1406 584 527 0 630 628 639 640 81 1 636 1517
 554 533 639 0 630 641 642 82 1 637 -1387528002 14 533 1130 636 ?523 527 532 4 6
43 -0 0 523 527 19 81 1 639 1407 584 533 0 636 634 644 645 81 1 641 1518 554 523
 644 0 636 646 647 82 1 642 -1388052290 14 523 1134 641 ?529 533 521 4 648 -0 0
 529 533 19 81 1 644 1408 584 523 0 641 639 649 650 81 1 646 1519 554 529 649 0
 641 651 652 82 1 647 -1388314434 14 529 1138 646 ?233 523 528 4 653 +0 0 233 52
3 19 81 1 649 1409 584 529 0 646 644 654 655 81 1 651 1520 554 233 654 0 646 656
 657 82 1 652 -1394868034 14 233 1250 651 ?214 529 229 4 658 -0 0 214 529 19 81
 1 654 1410 584 233 0 651 649 659 660 81 1 656 1521 554 214 659 0 651 661 662 82
 1 657 382599362 14 214 1254 656 ?663 233 210 4 664 -0 0 663 233 19 81 1 659 141
1 584 214 0 656 654 665 666 81 1 661 1522 554 663 665 0 656 667 668 82 1 662 382
337218 14 663 1258 661 ?669 214 670 4 671 -0 0 669 214 19 81 1 665 1412 584 663
 0 661 659 672 673 81 1 667 1523 554 669 672 0 661 674 675 82 1 668 382075074 14
 669 1262 667 ?226 663 25 4 676 -0 0 226 663 19 81 1 672 1413 584 669 0 667 665
 677 678 81 1 674 1524 554 226 677 0 667 679 680 82 1 675 381812930 14 226 1266
 674 ?0 669 221 4 681 -0 0 0 669 19 81 1 677 1414 584 226 0 674 672 0 682 81 1 6
79 1525 554 573 683 0 674 684 685 82 1 680 375259330 14 573 305 679 ?686 539 687
 4 688 +689 689 686 539 19 81 1 683 1381 584 573 0 679 690 691 692 81 1 684 1526
 554 686 691 0 679 693 694 82 1 685 -124256096 14 686 157 684 ?481 573 695 4 696
 +512 512 481 573 19 81 1 691 1382 584 686 0 684 683 697 698 81 1 693 1527 554 4
81 697 0 684 699 700 82 1 694 -1833959246 14 481 79 693 ?509 686 476 4 570 +0 0
 509 686 19 81 1 697 1383 584 481 0 693 691 701 702 81 1 699 1528 554 509 701 0
 693 703 704 82 1 700 -1822424910 14 509 81 699 ?512 481 472 4 568 +0 0 512 481
 19 81 1 701 1384 584 509 0 699 697 705 706 81 1 703 1529 554 512 705 0 699 707
 708 82 1 704 -1822293838 14 512 43 703 ?709 509 710 4 696 +686 686 709 509 19 8
1 1 705 1385 584 512 0 703 701 711 712 81 1 707 1530 554 709 711 0 703 713 714 8
2 1 708 -1822555982 14 709 201 707 ?715 512 716 4 717 -0 0 715 512 19 81 1 711 1
386 584 709 0 707 705 718 719 81 1 713 1531 554 715 718 0 707 720 721 82 1 714 -
1326645094 14 715 209 713 ?689 709 722 4 723 -0 0 689 709 19 81 1 718 1387 584 7
15 0 713 711 724 725 81 1 720 1532 554 689 724 0 713 726 727 82 1 721 -132716938
2 14 689 217 720 ?728 715 729 4 688 +573 573 728 715 19 81 1 724 1388 584 689 0
 720 718 730 731 81 1 726 1533 554 728 730 0 720 732 733 82 1 727 -1333985120 14
 728 389 726 ?734 689 735 4 736 -0 0 734 689 19 81 1 730 1389 584 728 0 726 724
 737 738 81 1 732 1534 554 734 737 0 726 739 740 82 1 733 1813184689 14 734 431
 732 ?741 728 742 4 743 -0 0 741 728 19 81 1 737 1390 584 734 0 732 730 744 745
 81 1 739 1535 554 741 744 0 732 746 747 82 1 740 1829306545 14 741 473 739 ?576
 734 748 4 749 -0 0 576 734 19 81 1 744 1391 584 741 0 739 737 750 751 81 1 746
 1536 554 576 750 0 739 0 752 82 1 747 1845362865 14 576 517 746 ?506 741 753 4
 560 -0 0 506 741 19 81 1 750 1392 584 576 0 746 744 754 755 82 1 752 1861353649
 80 1 584 0 756 8001 0 0 0 0 3 5 0 0 0 FFFFTFTFFFFFFF2 81 1 754 1393 584 506 0 5
75 750 585 757 83 255 3 755 .792156862745098 .819607843137255 .933333333333333 8
1 1 575 1506 554 506 754 0 572 577 758 81 1 585 1394 584 515 0 577 754 579 759 8
3 3 757 .792156862745098 .819607843137255 .933333333333333 83 3 759 .79215686274
5098 .819607843137255 .933333333333333 81 1 572 1505 554 539 690 0 564 575 760 8
2 1 758 1877475506 81 1 690 1380 584 539 0 572 761 683 762 81 1 564 1504 554 504
 761 0 561 572 763 82 1 760 1394344122 81 1 761 1379 584 504 0 564 563 690 764 8
2 1 763 -1382547266 81 1 563 1378 584 12 0 561 0 761 765 83 3 764 0 0 1 83 3 765
 .792156862745098 .819607843137255 .933333333333333 83 3 762 .792156862745098 .8
19607843137255 .933333333333333 79 255 15 756 SDL/TYSA_COLOUR15 753 520 0 766 57
6 767 51 560 526 0 576 553 749 0 +-.03416 .018245 0 0 0 1 .0016 1 0 0 51 749 482
 0 741 560 743 0 +.03416 -.018245 0 0 0 1 .0016 1 0 0 51 743 440 0 734 749 736 0
 +.03416 .018245 0 0 0 1 .0016 1 0 0 51 736 398 0 728 743 688 0 +-.03416 -.01824
5 0 0 0 1 .0016 1 0 0 50 688 230 0 689 736 723 0 +0 0 .0042 0 0 1 1 0 0 50 723 2
27 0 715 688 717 0 +.03011 -.0214 .0042 -1 0 0 0 0 1 50 717 225 0 709 723 567 0
 +-.03019 -.0214 .0042 1 0 0 0 0 -1 50 567 2 0 504 717 696 0 +0 0 -.0016002 0 0
 1 1 0 0 50 696 65 0 512 567 570 0 +0 0 0 0 0 1 1 0 0 50 570 90 0 481 696 568 0
 +.03725 .0214 -.0016002 -931395154886876e-31 1 0 -1 -931395154886876e-31 0 17 7
66 0 753 766 766 0 338 336 0 0 -15 767 521 0 335 576 0 17 335 0 767 335 335 0 76
8 332 0 0 +17 768 0 695 768 768 0 335 332 0 0 -15 695 498 0 768 686 769 15 769 3
70 0 770 686 436 17 770 0 769 770 770 0 353 351 0 0 -15 436 160 0 434 686 0 17 3
53 0 771 353 353 0 770 351 0 0 +15 771 393 0 353 728 0 17 338 0 566 338 338 0 76
6 336 0 0 +15 566 487 0 338 504 772 15 772 453 0 344 504 773 17 344 0 772 344 34
4 0 774 342 0 0 +15 773 403 0 350 504 775 17 350 0 773 350 350 0 776 348 0 0 +15
 775 359 0 356 504 486 17 356 0 775 356 356 0 777 354 0 0 +17 777 0 735 777 777
 0 356 354 0 0 -15 735 392 0 777 728 771 17 776 0 742 776 776 0 350 348 0 0 -15
 742 434 0 776 734 778 15 778 435 0 347 734 0 17 347 0 778 347 347 0 779 345 0 0
 +17 779 0 780 779 779 0 347 345 0 0 -15 780 414 0 779 512 511 17 774 0 748 774
 774 0 344 342 0 0 -15 748 476 0 774 741 781 15 781 477 0 341 741 0 17 341 0 781
 341 341 0 782 339 0 0 +17 782 0 710 782 782 0 341 339 0 0 -15 710 446 0 782 512
 780 83 3 751 .792156862745098 .819607843137255 .933333333333333 83 3 745 .79215
6862745098 .819607843137255 .933333333333333 83 3 738 .792156862745098 .81960784
3137255 .933333333333333 83 3 731 1 1 1 15 729 303 0 100 689 0 17 100 0 729 103
 783 98 109 394 0 393 -17 103 0 729 106 100 101 393 391 0 390 -17 783 0 729 100
 106 107 386 384 0 0 -17 109 0 784 386 393 107 100 394 0 783 +17 393 0 784 109 3
90 98 103 391 0 0 +15 784 288 0 393 573 0 17 390 0 784 393 386 101 106 387 0 0 +
17 386 0 784 390 109 104 783 384 0 0 +17 106 0 729 783 103 104 390 387 0 386 -83
 3 725 .792156862745098 .819607843137255 .933333333333333 15 722 212 0 419 715 0
 17 419 0 722 785 426 120 115 362 0 421 +17 785 0 722 786 419 127 421 381 0 787
 -17 426 0 722 419 786 113 517 422 0 0 +17 115 0 511 438 122 113 419 362 0 513 -
17 421 0 476 480 787 120 785 381 0 0 +17 480 0 476 79 421 80 122 402 0 484 -17 7
87 0 476 421 788 127 126 366 0 0 -17 788 0 476 787 482 119 380 368 0 789 -17 126
 0 687 360 129 119 787 366 0 788 +15 687 219 0 360 573 784 17 360 0 687 132 126
 123 789 358 0 433 +17 129 0 687 126 132 127 786 364 0 785 +17 132 0 687 129 360
 130 134 361 0 517 +17 786 0 722 426 785 130 129 364 0 0 -17 134 0 431 429 517 1
23 132 361 0 360 -17 517 0 431 134 513 130 426 422 0 786 -17 789 0 716 380 433 1
19 360 358 0 0 -17 433 0 716 789 376 123 429 427 0 0 -15 716 204 0 376 709 0 17
 376 0 716 433 380 116 112 357 0 0 +17 380 0 716 376 789 110 788 368 0 0 +17 112
 0 436 417 118 110 376 357 0 482 -17 417 0 436 56 112 71 482 406 0 0 +17 118 0 4
36 112 20 116 432 439 0 429 +17 482 0 476 788 477 110 417 406 0 380 -17 20 0 436
 118 434 57 53 9 0 432 +17 432 0 431 64 429 57 118 439 0 534 -17 56 0 436 434 41
7 54 73 21 0 437 +17 122 0 511 115 82 120 480 402 0 419 +83 3 719 .7921568627450
98 .819607843137255 .933333333333333 83 3 712 0 0 1 83 3 706 .792156862745098 .8
19607843137255 .933333333333333 83 3 702 .792156862745098 .819607843137255 .9333
33333333333 83 3 698 0 0 1 83 3 692 .250980392156863 .250980392156863 .250980392
156863 83 3 682 .250980392156863 .250980392156863 .250980392156863 50 681 1279 0
 226 0 676 0 +696414205905783e-32 -.0239 -1061539314521522e-47 -3145464145016875
e-31 1 496046408654917e-45 -1 -3145464145016875e-31 0 50 676 1277 0 669 681 671
 0 +-.02035 -.0239 -.0037402 0 0 1 1 0 0 50 671 1276 0 663 676 664 0 +-.02035 -.
0239 -.0037402 1 931395154886876e-31 3154042683594195e-30 3154042683594195e-30 0
 -1 50 664 1275 0 214 671 658 0 +-.02035 -.0239 -.0026402 0 0 -1 -1 0 0 50 658 1
274 0 233 664 653 0 +-.00932 -.0239 -.0037402 -1 -931395154886876e-31 1577021341
797095e-30 1577021341797095e-30 0 1 50 653 1151 0 529 658 648 0 +0 0 -.0037502 0
 0 -1 -1 0 0 50 648 1149 0 523 653 643 0 +-.02345 -.00665 -.0037502 -58212197180
4298e-31 -1 0 1 -582121971804298e-31 0 50 643 1148 0 533 648 638 0 +-.02345 -.02
14 -.0037502 1 0 0 0 0 -1 50 638 1146 0 527 643 633 0 +-.00855 -.0214 -.0037502
 -1 -117608371252665e-30 0 117608371252665e-30 -1 0 50 633 1027 0 625 638 627 0
 +-.04075 0 0 -1 0 0 0 0 1 50 627 1025 0 618 633 620 0 +-.04075 .00615 -.0021402
 0 -1 152168725962878e-30 0 -152168725962878e-30 -1 50 620 1024 0 611 627 613 0
 +-.04075 -.00615 -.0021402 0 0 -1 -1 0 0 50 613 1023 0 604 620 606 0 +-.04075 -
.00615 -.0021402 0 1 -152168725962878e-30 0 152168725962878e-30 1 50 606 1022 0
 598 613 599 0 +-.04075 -.00615 -.0078402 0 0 1 1 0 0 50 599 891 0 544 606 592 0
 +0 0 -.0078502 0 0 1 1 0 0 50 592 889 0 541 599 558 0 +-.02925 -.0075 -.0078502
 0 1 0 0 0 1 50 558 888 0 545 592 553 0 +-.02925 -.0075 -.0078502 -1 0 0 0 0 1 8
3 3 678 .250980392156863 .250980392156863 .250980392156863 15 25 1265 0 26 669 0
 17 26 0 25 228 23 192 790 231 0 230 +17 228 0 25 27 26 181 230 791 0 225 -17 79
0 0 516 792 234 10 26 231 0 0 -16 231 1226 0 ?26 223 793 794 0 0 1 17 230 0 229
 217 225 192 228 791 0 234 +16 791 1217 0 ?230 29 227 795 0 0 1 17 234 0 516 790
 236 192 217 235 0 0 -15 516 1192 0 236 12 0 17 236 0 516 234 792 198 197 796 0
 0 -16 235 1214 0 ?217 796 0 797 0 0 1 16 796 1218 0 ?197 793 235 798 0 0 1 30 7
97 1287 0 235 799 798 0 +-.00932 -.0214 -.0037402 1577021341797095e-30 0 1 30 79
9 1288 0 227 800 797 0 +-.02035 -.0239 -.0037402 1 3145464145016875e-31 0 30 798
 1286 0 796 797 801 0 +-.02035 -.0214 -.0026402 -1 -3145464145016875e-31 0 30 80
1 1285 0 793 798 794 0 +-.02035 -.0214 -.0037402 3154042683594195e-30 0 -1 16 79
3 1222 0 ?30 231 796 801 0 0 1 30 794 1284 0 231 801 795 0 +-.02035 -.0214 -.003
7402 1 3145464145016875e-31 0 30 795 1283 0 791 794 242 0 +-.00932 -.0239 -.0037
402 -931395154886876e-31 1 0 30 242 1282 0 29 795 240 0 +-.02035 -.0239 -.003740
2 -931395154886876e-31 1 0 16 29 1229 0 ?23 219 791 242 0 0 1 17 30 0 670 28 218
 10 792 793 0 790 +15 670 1261 0 30 663 0 17 28 0 670 220 30 203 23 29 0 27 -17
 218 0 670 30 220 195 211 219 0 792 +17 792 0 516 236 790 195 30 793 0 0 -17 220
 0 670 218 28 206 205 222 0 0 -17 205 0 221 202 208 203 220 222 0 28 +16 222 123
6 0 ?205 227 212 800 0 0 1 16 227 1239 0 ?202 791 222 799 0 0 1 30 800 1289 0 22
2 224 799 0 +-.02035 -.0239 -.0037402 3154042683594195e-30 0 -1 30 224 1290 0 21
2 232 800 0 +-.02035 -.0239 -.0026402 -1 -3145464145016875e-31 0 30 232 1291 0 2
23 0 224 0 +-.00932 -.0239 -.0037402 1577021341797095e-30 0 1 17 27 0 25 23 228
 203 202 227 0 0 -17 197 0 210 211 200 195 236 796 0 218 +83 3 673 .250980392156
863 .250980392156863 .250980392156863 83 3 666 .250980392156863 .250980392156863
 .250980392156863 83 3 660 .250980392156863 .250980392156863 .250980392156863 83
 3 655 .666666666666667 .698039215686275 .768627450980392 83 3 650 .666666666666
667 .698039215686275 .768627450980392 83 3 645 .666666666666667 .698039215686275
 .768627450980392 83 3 640 .666666666666667 .698039215686275 .768627450980392 83
 3 635 1 1 1 15 632 1016 0 267 625 0 17 267 0 632 168 162 153 802 265 0 803 +17
 168 0 632 165 267 166 170 268 0 804 +17 162 0 632 267 165 139 805 273 0 806 +17
 802 0 605 285 803 139 267 265 0 0 -17 803 0 605 802 277 153 159 291 0 0 -15 605
 1001 0 277 598 0 17 277 0 605 803 285 157 807 264 0 808 +17 159 0 612 156 170 1
57 803 291 0 277 +15 612 1005 0 156 604 0 17 156 0 612 804 159 154 808 278 0 290
 +17 170 0 612 159 804 153 168 268 0 267 -17 804 0 612 170 156 166 290 288 0 809
 -17 290 0 619 282 809 154 804 288 0 810 +17 809 0 619 290 811 166 165 271 0 0 -
15 619 1009 0 282 611 0 17 811 0 619 809 282 163 39 286 0 805 -17 165 0 632 162
 168 163 809 271 0 811 +17 282 0 619 811 290 32 810 280 0 812 +17 39 0 626 152 8
05 32 811 286 0 282 +17 805 0 626 39 806 163 162 273 0 0 -15 626 1013 0 152 618
 0 17 806 0 626 805 152 139 285 275 0 802 -17 152 0 626 806 39 150 812 269 0 285
 +17 285 0 605 277 802 150 806 275 0 807 +17 807 0 540 812 808 150 277 264 0 0 -
15 540 941 0 808 539 0 17 812 0 540 810 807 32 152 269 0 0 -17 808 0 540 807 810
 157 156 278 0 0 -17 810 0 540 808 812 154 282 280 0 0 -83 3 629 1 1 1 83 3 622
 1 1 1 83 3 615 1 1 1 83 3 608 1 1 1 83 3 601 .843137254901961 .815686274509804
 .752941176470588 81 1 593 1398 584 545 0 556 555 589 813 83 3 595 .843137254901
961 .815686274509804 .752941176470588 81 1 556 1501 554 545 593 0 552 559 814 81
 1 555 1397 584 549 0 552 586 593 815 83 3 813 .843137254901961 .815686274509804
 .752941176470588 81 1 586 1396 584 14 0 559 579 555 816 83 3 815 .8431372549019
61 .815686274509804 .752941176470588 81 1 559 1502 554 14 586 0 556 561 817 83 3
 816 .792156862745098 .819607843137255 .933333333333333 82 1 817 1883373746 82 1
 814 -176422730 82 1 588 1879441586 83 3 587 .792156862745098 .819607843137255 .
933333333333333 79 14 583 SWEntUnchanged82 1 565 387449026 82 1 557 -176160586 1
7 547 0 486 76 50 68 462 460 0 489 -17 462 0 318 542 70 48 547 460 0 331 +17 70
 0 318 462 437 68 490 454 0 547 +17 490 0 488 73 489 54 70 454 0 0 -17 76 0 486
 478 547 74 489 491 0 475 +17 502 0 514 510 503 89 500 499 0 0 -17 91 0 472 471
 507 89 510 396 0 473 +141 378 377 378 378 374 141 372 416 372 372 369 141 316 3
15 316 316 313 19 13 95 0 1 0 8 4 S0 141 17 16 17 17 6 74 4 CI16 index_map_offse
t0 0 1 dCCZ20 11 2 0 0 746 677 0 0 0 0 0 0 0 0 0 0 0 0 0 0 0 0 0 0 1 0 
